<svg width="540" height="100" viewBox="0 0 540 100" fill="none" xmlns="http://www.w3.org/2000/svg">
<path d="M81.7647 10.4257C81.7647 9.06654 80.6603 7.96094 79.3061 8.00106C35.286 9.30534 0 45.5183 0 90H24.5294C24.5294 58.2852 50.1545 32.5753 81.7647 32.5753V10.4257Z" fill="#FEFE53"/>
<path d="M81.7647 90H139C139 58.2852 113.375 32.5753 81.7647 32.5753V90Z" fill="#FEFE53"/>
<path d="M263.825 88.8491C263.909 89.4553 263.441 90 262.829 90H244.535C244.026 90 243.597 89.6166 243.543 89.11C243.34 87.2186 243.202 85.6806 243.128 84.496C243.043 83.0453 243 81.68 243 80.4C241.379 83.984 238.733 86.7573 235.064 88.72C231.48 90.5973 227.128 91.536 222.008 91.536C215.011 91.536 209.464 89.7867 205.368 86.288C201.272 82.7893 199.224 78.096 199.224 72.208C199.224 66.32 201.229 61.712 205.24 58.384C209.251 55.056 215.352 52.9653 223.544 52.112L241.976 50.32V47.632C241.976 44.6453 241.123 42.3413 239.416 40.72C237.709 39.0133 235.277 38.16 232.12 38.16C229.304 38.16 227.043 38.928 225.336 40.464C223.842 41.7341 222.936 43.4294 222.619 45.5499C222.542 46.0706 222.111 46.48 221.584 46.48H203.136C202.548 46.48 202.085 45.9731 202.159 45.3894C203.033 38.4896 206.065 33.0932 211.256 29.2C216.717 25.0186 223.928 22.928 232.888 22.928C242.787 22.928 250.253 25.232 255.288 29.84C260.323 34.3626 262.84 41.104 262.84 50.064V71.312C262.84 75.2373 262.925 78.6507 263.096 81.552C263.243 83.9844 263.486 86.4168 263.825 88.8491ZM220.344 70.8C220.344 73.0187 221.069 74.768 222.52 76.048C223.971 77.2426 225.976 77.84 228.536 77.84C232.461 77.84 235.661 76.688 238.136 74.384C240.696 72.08 241.976 69.008 241.976 65.168V61.968L230.2 63.376C226.616 63.8027 224.056 64.6133 222.52 65.808C221.069 66.9173 220.344 68.5813 220.344 70.8Z" fill="#FEFE53"/>
<path d="M294 8C294.552 8 295 8.44772 295 9V89C295 89.5523 294.552 90 294 90H274C273.448 90 273 89.5523 273 89V9C273 8.44771 273.448 8 274 8H294Z" fill="#FEFE53"/>
<path d="M324 8C324.552 8 325 8.44772 325 9V89C325 89.5523 324.552 90 324 90H305C304.448 90 304 89.5523 304 89V9C304 8.44771 304.448 8 305 8H324Z" fill="#FEFE53"/>
<path d="M388.237 91.536C378.68 91.536 371.042 89.6587 365.325 85.904C359.913 82.269 356.718 77.2193 355.741 70.7551C355.652 70.1663 356.117 69.648 356.713 69.648H374.694C375.193 69.648 375.609 70.0187 375.725 70.5044C376.222 72.5797 377.449 74.2569 379.405 75.536C381.624 76.9013 384.44 77.584 387.853 77.584C390.84 77.584 393.229 77.072 395.021 76.048C396.813 74.9386 397.709 73.4453 397.709 71.568C397.709 70.032 397.069 68.88 395.789 68.112C394.594 67.2587 392.205 66.4907 388.621 65.808L376.973 63.888C370.402 62.7787 365.538 60.6453 362.381 57.488C359.224 54.3307 357.645 50.1493 357.645 44.944C357.645 38.4586 360.333 33.168 365.709 29.072C371.17 24.976 378.04 22.928 386.317 22.928C395.192 22.928 402.232 24.8053 407.437 28.56C412.349 32.0223 415.285 36.8142 416.246 42.9357C416.339 43.5262 415.873 44.048 415.275 44.048H398.311C397.817 44.048 397.405 43.6853 397.277 43.2086C396.788 41.3835 395.651 39.914 393.869 38.8C391.906 37.4347 389.474 36.752 386.573 36.752C383.842 36.752 381.624 37.3066 379.917 38.416C378.296 39.44 377.485 40.848 377.485 42.64C377.485 44.176 378.082 45.3706 379.277 46.224C380.472 46.992 382.776 47.6747 386.189 48.272L398.861 50.448C405.005 51.3867 409.656 53.52 412.813 56.848C416.056 60.0906 417.677 64.4 417.677 69.776C417.677 76.2613 414.904 81.5093 409.357 85.52C403.896 89.5306 396.856 91.536 388.237 91.536Z" fill="#FEFE53"/>
<path d="M468.777 69.3017C468.934 68.901 469.312 68.624 469.743 68.624H487.508C488.141 68.624 488.616 69.2053 488.466 69.8202C486.873 76.3388 483.421 81.5294 478.11 85.392C472.563 89.488 465.566 91.536 457.118 91.536C446.878 91.536 438.515 88.4213 432.03 82.192C425.63 75.8773 422.43 67.5573 422.43 57.232C422.43 46.9067 425.63 38.6293 432.03 32.4C438.43 26.0853 446.707 22.928 456.862 22.928C466.675 22.928 474.483 26 480.286 32.144C486.089 38.288 488.99 46.3093 488.99 56.208V60.968C488.99 61.5203 488.542 61.968 487.99 61.968H444.171C443.569 61.968 443.102 62.4962 443.198 63.0901C443.879 67.3182 445.319 70.5708 447.518 72.848C449.907 75.2373 453.107 76.432 457.118 76.432C460.105 76.432 462.622 75.792 464.67 74.512C466.533 73.2697 467.902 71.533 468.777 69.3017ZM456.862 37.904C453.278 37.904 450.334 38.9706 448.03 41.104C445.947 43.0325 444.492 45.798 443.664 49.4002C443.524 50.009 443.998 50.576 444.622 50.576H468.15C468.702 50.576 469.153 50.1277 469.123 49.5763C468.94 46.28 467.84 43.5839 465.822 41.488C463.603 39.0987 460.617 37.904 456.862 37.904Z" fill="#FEFE53"/>
<path d="M529.183 74C530.719 74 532.084 73.9574 533.279 73.872C534.165 73.7538 535.072 73.5947 536 73.3947C536.636 73.2575 537.247 73.7342 537.247 74.3848V88.225C537.247 88.6699 536.953 89.0623 536.524 89.1809C534.157 89.8358 531.966 90.2795 529.951 90.512C527.732 90.8533 525.343 91.024 522.783 91.024C515.103 91.024 509.471 89.4454 505.887 86.288C502.303 83.0454 500.511 78.0107 500.511 71.184V40.44C500.511 39.8877 500.063 39.44 499.511 39.44H492.807C492.255 39.44 491.807 38.9923 491.807 38.44V25.464C491.807 24.9117 492.255 24.464 492.807 24.464H499.511C500.063 24.464 500.511 24.0163 500.511 23.464V9.20801C500.511 8.65572 500.959 8.20801 501.511 8.20801H520.631C521.183 8.20801 521.631 8.65572 521.631 9.20801V23.464C521.631 24.0163 522.079 24.464 522.631 24.464H534.839C535.391 24.464 535.839 24.9117 535.839 25.464V38.44C535.839 38.9923 535.391 39.44 534.839 39.44H522.503C521.951 39.44 521.503 39.8877 521.503 40.44V66.832C521.503 69.392 522.058 71.2267 523.167 72.336C524.362 73.4453 526.367 74 529.183 74Z" fill="#FEFE53"/>
</svg>

